<?xml version="1.0" encoding="UTF-8"?>
<svg version="1.1" xmlns="http://www.w3.org/2000/svg" width="32" height="32">
<path d="M0 0 C10.56 0 21.12 0 32 0 C32 10.56 32 21.12 32 32 C21.44 32 10.88 32 0 32 C0 21.44 0 10.88 0 0 Z " fill="#3CAA37" transform="translate(0,0)"/>
<path d="M0 0 C1.43749859 -0.01060885 2.87528985 0.00056224 4.3125 0.03125 C5.03695313 0.01578125 5.76140625 0.0003125 6.5078125 -0.015625 C8.625 0 8.625 0 12.3125 0.53125 C14.3125 2.5625 14.3125 2.5625 15.3125 4.53125 C12.6725 4.53125 10.0325 4.53125 7.3125 4.53125 C7.3125 6.51125 7.3125 8.49125 7.3125 10.53125 C8.983125 10.5003125 8.983125 10.5003125 10.6875 10.46875 C14.3125 10.53125 14.3125 10.53125 16.3125 11.53125 C15.9825 12.52125 15.6525 13.51125 15.3125 14.53125 C12.6725 14.86125 10.0325 15.19125 7.3125 15.53125 C7.3125 17.18125 7.3125 18.83125 7.3125 20.53125 C3.5625 21.65625 3.5625 21.65625 1.3125 20.53125 C1.1875 14.78125 1.1875 14.78125 2.3125 12.53125 C5.9425 12.53125 9.5725 12.53125 13.3125 12.53125 C7.02191994 11.83229666 1.52211874 11.28932625 -4.6875 12.53125 C-3.3675 13.19125 -2.0475 13.85125 -0.6875 14.53125 C-2.6675 14.53125 -4.6475 14.53125 -6.6875 14.53125 C-7.0175 13.54125 -7.3475 12.55125 -7.6875 11.53125 C-4.73085481 10.0529274 -1.94520263 10.47092217 1.3125 10.53125 C1.3125 8.55125 1.3125 6.57125 1.3125 4.53125 C-1.3275 4.53125 -3.9675 4.53125 -6.6875 4.53125 C-4.89035536 0.99312148 -4.01639463 0.57863313 0 0 Z " fill="#EDF7ED" transform="translate(11.6875,6.46875)"/>
<path d="M0 0 C2.375 2.1875 2.375 2.1875 4 4 C3.34 5.65 2.68 7.3 2 9 C1.505 8.3503125 1.01 7.700625 0.5 7.03125 C-2.88286613 4.28267127 -5.83129579 4.409376 -10 4.5 C-11.06734375 4.47679687 -11.06734375 4.47679687 -12.15625 4.453125 C-15.78457785 4.48020207 -17.64828867 4.71423455 -20.5 7.03125 C-20.995 7.6809375 -21.49 8.330625 -22 9 C-22.99 8.67 -23.98 8.34 -25 8 C-23.60678155 3.12373543 -21.06141704 0.92422027 -17 -2 C-11.14680297 -4.4545665 -5.22801468 -3.25298691 0 0 Z " fill="#41AD3C" transform="translate(26,3)"/>
<path d="M0 0 C0.33 0 0.66 0 1 0 C1 1.98 1 3.96 1 6 C2.670625 5.9690625 2.670625 5.9690625 4.375 5.9375 C8 6 8 6 10 7 C9.67 7.99 9.34 8.98 9 10 C6.36 10.33 3.72 10.66 1 11 C1 12.65 1 14.3 1 16 C-2.75 17.125 -2.75 17.125 -5 16 C-5.125 10.25 -5.125 10.25 -4 8 C-0.37 8 3.26 8 7 8 C4.69 7.67 2.38 7.34 0 7 C0 4.69 0 2.38 0 0 Z " fill="#D3ECD2" transform="translate(18,11)"/>
<path d="M0 0 C4.29 0 8.58 0 13 0 C11.02 0.99 11.02 0.99 9 2 C4.47156168 5.26047559 2.27581829 7.51398137 1 13 C0.67 13 0.34 13 0 13 C0 8.71 0 4.42 0 0 Z " fill="#F5FAF5" transform="translate(0,0)"/>
<path d="M0 0 C0.99 1.485 0.99 1.485 2 3 C5.35048678 7.56038478 7.29121224 9.67237494 13 11 C13 11.33 13 11.66 13 12 C8.71 12 4.42 12 0 12 C0 8.04 0 4.08 0 0 Z " fill="#F7FBF6" transform="translate(0,20)"/>
<path d="M0 0 C3.96 0 7.92 0 12 0 C12 4.29 12 8.58 12 13 C11.34 11.68 10.68 10.36 10 9 C7.02164845 4.97520061 4.88695779 2.39627365 0 1 C0 0.67 0 0.34 0 0 Z " fill="#F7FBF7" transform="translate(20,0)"/>
<path d="M0 0 C0.33 0 0.66 0 1 0 C1 3.96 1 7.92 1 12 C-2.96 12 -6.92 12 -11 12 C-10.01 11.34 -9.02 10.68 -8 10 C-4.01036025 6.98741489 -1.39610402 4.88636408 0 0 Z " fill="#F9FCF8" transform="translate(31,20)"/>
<path d="M0 0 C0.33 0.66 0.66 1.32 1 2 C-7.57142857 2.14285714 -7.57142857 2.14285714 -11 1 C-11.33 1.99 -11.66 2.98 -12 4 C-14.375 4.1875 -14.375 4.1875 -17 4 C-17.66 3.01 -18.32 2.02 -19 1 C-15.11525763 -2.88474237 -4.77690498 -0.95042227 0 0 Z " fill="#63BB5F" transform="translate(25,18)"/>
</svg>
